<svg xmlns="http://www.w3.org/2000/svg" width="733" height="637.132" viewBox="0 0 733 637.132"><g transform="translate(0.066 0)"><rect width="342" height="183" transform="translate(-0.066 0)" fill="#40146e"/><text transform="translate(166.004 50.362)" fill="#fff" font-size="26" font-family="Helvetica"><tspan x="-59.973" y="0">Increases </tspan><tspan x="-75.182" y="29">endogenous </tspan><tspan x="-82.38" y="58">erythropoietin </tspan><tspan x="-60.709" y="87">production</tspan></text></g><rect width="342" height="183" transform="translate(0 226.132)" fill="#40146e"/><rect width="342" height="183" transform="translate(0 454.132)" fill="#40146e"/><path d="M7.831,0V7.831H0v6.188H7.831V21.85h6.188V14.019H21.85V7.831H14.019V0Z" transform="translate(153.771 191.868)"/><path d="M7.831,0V7.831H0v6.188H7.831V21.85h6.188V14.019H21.85V7.831H14.019V0Z" transform="translate(153.771 419.868)"/><text transform="translate(169.835 291.983)" fill="#fff" font-size="26" font-family="Helvetica"><tspan x="-53.46" y="0">Improves</tspan><tspan x="-25.289" y="29">iron </tspan><tspan x="-77.321" y="58">bioavailability</tspan></text><text transform="translate(169.835 537.132)" fill="#fff" font-size="26" font-family="Helvetica"><tspan x="-51.308" y="0">Reduces</tspan><tspan x="-85.274" y="29">hepcidin levels</tspan></text><rect width="341" height="183" transform="translate(392 223.483)" fill="#ad1aac"/><text transform="translate(558.695 276.783)" fill="#fff" font-size="26" font-family="Helvetica"><tspan x="-57.091" y="0">Increased</tspan><tspan x="-67.933" y="29">Hb and red </tspan><tspan x="-58.538" y="58">blood cell </tspan><tspan x="-60.709" y="87">production</tspan></text><g transform="translate(354.917 306.532)"><rect width="22" height="6" transform="translate(-0.008 0.451)"/><rect width="22" height="7" transform="translate(-0.008 9.451)"/></g></svg>