<svg xmlns="http://www.w3.org/2000/svg" width="733" height="637.132" viewBox="0 0 733 637.132"><g transform="translate(0.066 0)"><rect width="342" height="183" transform="translate(-0.066 0)" fill="#40146e"/><text transform="translate(166.004 50.362)" fill="#fff" font-size="26" font-family="TradeGothicLTStd-BoldExt, Trade Gothic LT Std" font-weight="700"><tspan x="-74.009" y="0">Increases </tspan><tspan font-family="Trade Gothic LT Std Extended, Trade Gothic LT Std" font-weight="400"><tspan x="-91.39" y="29">endogenous </tspan><tspan x="-103.662" y="58">erythropoietin </tspan><tspan x="-76.57" y="87">production</tspan></tspan></text></g><rect width="342" height="183" transform="translate(0 226.132)" fill="#40146e"/><rect width="342" height="183" transform="translate(0 454.132)" fill="#40146e"/><path d="M7.831,0V7.831H0v6.188H7.831V21.85h6.188V14.019H21.85V7.831H14.019V0Z" transform="translate(153.771 191.868)"/><path d="M7.831,0V7.831H0v6.188H7.831V21.85h6.188V14.019H21.85V7.831H14.019V0Z" transform="translate(153.771 419.868)"/><text transform="translate(169.835 291.983)" fill="#fff" font-size="26" font-family="TradeGothicLTStd-BoldExt, Trade Gothic LT Std" font-weight="700"><tspan x="-66.417" y="0">Improves</tspan><tspan font-family="Trade Gothic LT Std Extended, Trade Gothic LT Std" font-weight="400"><tspan x="-30.706" y="29">iron </tspan><tspan x="-93.964" y="58">bioavailability</tspan></tspan></text><text transform="translate(169.835 537.132)" fill="#fff" font-size="26" font-family="TradeGothicLTStd-BoldExt, Trade Gothic LT Std" font-weight="700"><tspan x="-63.557" y="0">Reduces</tspan><tspan font-family="Trade Gothic LT Std Extended, Trade Gothic LT Std" font-weight="400"><tspan x="-103.701" y="29">hepcidin levels</tspan></tspan></text><rect width="341" height="183" transform="translate(392 223.483)" fill="#ad1aac"/><text transform="translate(558.695 276.783)" fill="#fff" font-size="26" font-family="TradeGothicLTStd-BoldExt, Trade Gothic LT Std" font-weight="700"><tspan x="-70.759" y="0">Increased</tspan><tspan font-family="Trade Gothic LT Std Extended, Trade Gothic LT Std" font-weight="400"><tspan x="-86.294" y="29">Hb and red </tspan><tspan x="-71.539" y="58">blood cell </tspan><tspan x="-76.57" y="87">production</tspan></tspan></text><g transform="translate(354.917 306.532)"><rect width="22" height="6" transform="translate(-0.008 0.451)"/><rect width="22" height="7" transform="translate(-0.008 9.451)"/></g></svg>