<svg xmlns="http://www.w3.org/2000/svg" width="1186" height="570" viewBox="0 0 1186 570"><rect width="1186" height="570" rx="43" fill="#fff" opacity="0.612"/><text transform="translate(58 69)" fill="#4d4d4f" font-size="27" font-family="Helvetica"><tspan x="0" y="21">Mean (95% confidence interval) levels of haemoglobin (per protocol set)</tspan><tspan y="21" font-size="15.749" baseline-shift="8.999099846546754">2</tspan></text><text transform="translate(900 334)" fill="#4d4d4f" font-size="21" font-family="Helvetica"><tspan x="0" y="16">89.5% of </tspan><tspan x="0" y="42">EVRENZO-treated </tspan><tspan x="0" y="68">patients achieved a </tspan><tspan x="0" y="94">Hb response vs. </tspan><tspan x="0" y="120">78.0% of patients </tspan><tspan x="0" y="146">receiving ESA</tspan><tspan y="146" font-size="12.249" baseline-shift="6.999300001743786">2</tspan></text><g transform="translate(252.215 73.157)"><text transform="translate(647.785 158.089)" fill="#006345" font-size="24" font-family="Helvetica"><tspan x="0" y="18">NDD vs. active </tspan><tspan x="0" y="44.01">comparator:</tspan><tspan fill="#e29a40"><tspan x="0" y="70.02">DOLOMITES</tspan></tspan></text><g transform="translate(648.925 47.843)"><path d="M713.944,61.267l38.274,66.293H675.67Zm26.088,59.258L713.944,75.338l-26.089,45.188Z" transform="translate(-606.034 -27.194)" fill="#e29a40"/><path d="M706.181,47.843l57.946,100.366H648.234Zm45.76,93.331-45.76-79.26-45.761,79.26Z" transform="translate(-648.234 -47.843)" fill="#006345"/></g></g><g transform="translate(-100 -259)"><rect width="714.359" height="146.545" transform="translate(219.696 517.435)" fill="#666" opacity="0.2" style="mix-blend-mode:multiply;isolation:isolate"/><text transform="translate(207.158 446.616)" fill="#666" font-size="8" font-family="Helvetica"><tspan x="-15.57" y="0">13.0</tspan></text><text transform="translate(207.158 519.889)" fill="#666" font-size="8" font-family="Helvetica"><tspan x="-15.57" y="0">12.0</tspan></text><text transform="translate(207.158 593.161)" fill="#666" font-size="8" font-family="Helvetica"><tspan x="-14.98" y="0">11.0</tspan></text><text transform="translate(207.158 666.433)" fill="#666" font-size="8" font-family="Helvetica"><tspan x="-15.57" y="0">10.0</tspan></text><text transform="translate(208.214 739.706)" fill="#666" font-size="8" font-family="Helvetica"><tspan x="-11.121" y="0">9.0</tspan></text><text transform="translate(218.982 753.903)" fill="#666" font-size="7" font-family="Helvetica"><tspan x="-4.281" y="0">BL</tspan></text><text transform="translate(240.507 752.903)" fill="#666" font-size="6" font-family="Helvetica"><tspan x="-1.668" y="0">0</tspan></text><text transform="translate(262.233 752.903)" fill="#666" font-size="6" font-family="Helvetica"><tspan x="-1.668" y="0">2</tspan></text><text transform="translate(283.959 752.903)" fill="#666" font-size="6" font-family="Helvetica"><tspan x="-1.668" y="0">4</tspan></text><text transform="translate(305.686 752.903)" fill="#666" font-size="6" font-family="Helvetica"><tspan x="-1.668" y="0">6</tspan></text><text transform="translate(327.412 752.903)" fill="#666" font-size="6" font-family="Helvetica"><tspan x="-1.668" y="0">8</tspan></text><text transform="translate(349.424 753.903)" fill="#666" font-size="7" font-family="Helvetica"><tspan x="-3.893" y="0">10</tspan></text><text transform="translate(371.15 753.903)" fill="#666" font-size="7" font-family="Helvetica"><tspan x="-3.893" y="0">12</tspan></text><text transform="translate(392.876 753.903)" fill="#666" font-size="7" font-family="Helvetica"><tspan x="-3.893" y="0">14</tspan></text><text transform="translate(414.603 753.903)" fill="#666" font-size="7" font-family="Helvetica"><tspan x="-3.893" y="0">16</tspan></text><text transform="translate(436.329 753.903)" fill="#666" font-size="7" font-family="Helvetica"><tspan x="-3.893" y="0">18</tspan></text><text transform="translate(458.055 753.903)" fill="#666" font-size="7" font-family="Helvetica"><tspan x="-3.893" y="0">20</tspan></text><text transform="translate(479.781 753.903)" fill="#666" font-size="7" font-family="Helvetica"><tspan x="-3.893" y="0">22</tspan></text><text transform="translate(501.507 753.903)" fill="#666" font-size="7" font-family="Helvetica"><tspan x="-3.893" y="0">24</tspan></text><text transform="translate(523.233 753.903)" fill="#666" font-size="7" font-family="Helvetica"><tspan x="-3.893" y="0">28</tspan></text><text transform="translate(544.96 753.903)" fill="#666" font-size="7" font-family="Helvetica"><tspan x="-3.893" y="0">32</tspan></text><text transform="translate(566.686 753.903)" fill="#666" font-size="7" font-family="Helvetica"><tspan x="-3.893" y="0">36</tspan></text><text transform="translate(588.412 753.903)" fill="#666" font-size="7" font-family="Helvetica"><tspan x="-3.893" y="0">40</tspan></text><text transform="translate(610.138 753.903)" fill="#666" font-size="7" font-family="Helvetica"><tspan x="-3.893" y="0">44</tspan></text><text transform="translate(631.864 753.903)" fill="#666" font-size="7" font-family="Helvetica"><tspan x="-3.893" y="0">48</tspan></text><text transform="translate(653.591 753.903)" fill="#666" font-size="7" font-family="Helvetica"><tspan x="-3.893" y="0">52</tspan></text><text transform="translate(675.317 753.903)" fill="#666" font-size="7" font-family="Helvetica"><tspan x="-3.893" y="0">56</tspan></text><text transform="translate(697.043 753.903)" fill="#666" font-size="7" font-family="Helvetica"><tspan x="-3.893" y="0">60</tspan></text><text transform="translate(718.769 753.903)" fill="#666" font-size="7" font-family="Helvetica"><tspan x="-3.893" y="0">64</tspan></text><text transform="translate(740.496 753.903)" fill="#666" font-size="7" font-family="Helvetica"><tspan x="-3.893" y="0">68</tspan></text><text transform="translate(762.221 753.903)" fill="#666" font-size="7" font-family="Helvetica"><tspan x="-3.893" y="0">72</tspan></text><text transform="translate(783.948 753.903)" fill="#666" font-size="7" font-family="Helvetica"><tspan x="-3.893" y="0">76</tspan></text><text transform="translate(805.674 753.903)" fill="#666" font-size="7" font-family="Helvetica"><tspan x="-3.893" y="0">80</tspan></text><text transform="translate(827.4 753.903)" fill="#666" font-size="7" font-family="Helvetica"><tspan x="-3.893" y="0">84</tspan></text><text transform="translate(849.126 753.903)" fill="#666" font-size="7" font-family="Helvetica"><tspan x="-3.893" y="0">88</tspan></text><text transform="translate(870.852 753.903)" fill="#666" font-size="7" font-family="Helvetica"><tspan x="-3.893" y="0">92</tspan></text><text transform="translate(892.578 753.903)" fill="#666" font-size="7" font-family="Helvetica"><tspan x="-3.893" y="0">96</tspan></text><text transform="translate(914.591 753.903)" fill="#666" font-size="7" font-family="Helvetica"><tspan x="-5.84" y="0">100</tspan></text><text transform="translate(936.318 753.903)" fill="#666" font-size="7" font-family="Helvetica"><tspan x="-5.84" y="0">104</tspan></text><text transform="translate(168.414 582.189) rotate(-90)" fill="#666" font-size="19" font-family="Helvetica"><tspan x="-83.436" y="0">Haemoglobin (g/dL)</tspan></text><text transform="translate(575.167 785.006)" fill="#666" font-size="19" font-family="Helvetica"><tspan x="-50.863" y="0">Visit (Week)</tspan></text><text transform="translate(225.956 529.658)" fill="#757779" font-size="8" font-family="Helvetica"><tspan x="0" y="0">Target Hb range</tspan><tspan font-family="TradeGothicLTStd-BoldExt" font-weight="700"><tspan x="0" y="10"></tspan></tspan></text><line y1="293" transform="translate(219 445)" fill="none" stroke="#666" stroke-miterlimit="10" stroke-width="2"/><line x1="719" transform="translate(218 738)" fill="none" stroke="#666" stroke-miterlimit="10" stroke-width="2"/><rect width="791" height="405" transform="translate(158 396)" fill="none"/><text transform="translate(724.318 443.837)" fill="#376348" font-size="15" font-family="Helvetica"><tspan x="0" y="0">EVRENZO (n=286)</tspan></text><text transform="translate(650.194 417.934)" fill="#666" font-size="15" font-family="Helvetica"><tspan x="0" y="0">Treatment</tspan></text><text transform="translate(724.318 472.299)" fill="#757779" font-size="15" font-family="Helvetica"><tspan x="0" y="0">ESA (n=273)</tspan></text><line x2="65" transform="translate(651.151 467.683)" fill="none" stroke="#757779" stroke-miterlimit="10" stroke-width="3"/><line x2="65" transform="translate(651.151 439.683)" fill="none" stroke="#376348" stroke-miterlimit="10" stroke-width="3"/></g><path d="M111.71,427.834l28.269-22.115,20.543-22.253,22.165-35.822,17.3-20.625,25.95-24.967,21.084,5.428L268.645,276l21.625,19,23.246-18.454,3.427,4.94L334.6,306.937l22.706-21.71,19.462,20.082,23.246,6.513L422.72,287.4l19.462,15.74,22.706-12.483,21.084,28.766,22.165-15.74,21.084,14.112,22.706-19.539,21.625,19.539,20-17.911,22.706,11.941,23.787-17.368,18.922,14.655,21.084-16.283,22.706,14.654,22.706-8.684L748.17,323.22l22.706-23.881L789.8,319.421l22.165-16.283,14.379,6.668" transform="translate(7.495 25.224)" fill="none" stroke="#757779" stroke-miterlimit="10" stroke-width="4"/><path d="M827.085,289.5l-43.793,3.147-22.146-15.51-21.084,16.283L717.9,271.164,695.19,284.733l-21.084-16.826-21.625,16.826-21.625-18.454-21.625,24.967-22.706-15.74-20.543,25.51-21.625-21.168-4.325,3.257-17.84,16.826L499.488,283.1l-21.625.543-20.543-19L436.736,278.7l-22.665-6.451-22.165,24.424-21.625-10.312L348.116,253.8l-20.543,20.082-22.165-32.566-21.625,28.766L262.158,231l-20.543,28.766-22.706-5.428-21.625,12.483L175.119,298.3l-21.084,43.963-25.409,40.707-18.093,25.7" transform="translate(8.035 45.8)" fill="none" stroke="#376348" stroke-miterlimit="10" stroke-width="4"/><rect width="714.152" height="199.594" transform="translate(119.902 258.889)" fill="none"/></svg>