<svg xmlns="http://www.w3.org/2000/svg" width="27" height="27" viewBox="0 0 27 27"><g transform="translate(-7637 -3742)"><g transform="translate(7637 3741.902)"><circle cx="13.5" cy="13.5" r="13.5" transform="translate(0 0.098)" fill="#e5e5e5"/><path d="M17.2,14.488,14.012,11.3,17.2,8.108a.338.338,0,0,0,0-.479L14.967,5.4a.338.338,0,0,0-.479,0L11.3,8.585,8.109,5.4a.348.348,0,0,0-.479,0L5.4,7.63a.339.339,0,0,0,0,.479l3.19,3.19L5.4,14.488a.339.339,0,0,0,0,.479L7.63,17.2a.338.338,0,0,0,.479,0l3.19-3.19,3.19,3.19a.339.339,0,0,0,.479,0L17.2,14.966a.338.338,0,0,0,0-.479Z" transform="translate(2.319 2.32)" fill="#bf4040"/></g></g></svg>