<svg xmlns="http://www.w3.org/2000/svg" width="312.312" height="104.909" viewBox="0 0 312.312 104.909"><g transform="translate(-23.487 -17.89)"><g transform="translate(23.487 26.667)"><path d="M42.5,69.319h3.323v4.753h.093c1.846-3.276,3.831-5.123,7.8-5.123v3.325c-4.156.091-6.325,2.817-7.895,7.755V93.323H42.5Z" transform="translate(-12.682 2.346)" fill="#ad1aac"/><path d="M60.133,93.817c-6.554,0-9.833-5.539-9.833-12.463S53.579,68.89,60.133,68.89s9.833,5.539,9.833,12.464-3.278,12.463-9.833,12.463m0-22.065c-3.969,0-6.508,3.416-6.508,9.6s2.539,9.6,6.508,9.6,6.51-3.417,6.51-9.6-2.539-9.6-6.51-9.6" transform="translate(-8.251 2.313)" fill="#ad1aac"/><path d="M72.806,77.725l5.031-8.541h3.74l-6.74,11.4,7.8,12.6H78.806l-6-9.831L66.99,93.189H63.251l7.57-12.6L63.8,69.184h3.739Z" transform="translate(-0.892 2.48)" fill="#ad1aac"/><path d="M76.863,73.967a9.829,9.829,0,0,1,9-5.076c4.06,0,8.307,1.938,8.307,7.2V88.187a18.571,18.571,0,0,0,.555,5.169H91.311l-.369-3.323A10.719,10.719,0,0,1,83,93.818c-3.693,0-6.831-2.216-6.831-6.6,0-5.263,4.016-7.895,14.679-9.787V76.138c0-3.185-2.078-4.385-4.938-4.385a6.205,6.205,0,0,0-6.14,3.739ZM90.85,80.385c-7.617,1.338-11.356,3.555-11.356,6.878a3.941,3.941,0,0,0,3.969,3.693c2.4,0,5.448-1.755,7.386-3.969Z" transform="translate(6.45 2.314)" fill="#ad1aac"/><path d="M109.453,63.239V91.306a33.545,33.545,0,0,0,.185,5.261h-3.047l-.461-2.354a7.9,7.9,0,0,1-6.325,2.817c-4.247,0-9.831-2.864-9.831-12.463,0-9.326,5.585-12.466,9.648-12.466a10.337,10.337,0,0,1,6.323,2.679l.185.093V63.239ZM106.13,78.288c-1.8-1.985-4.062-3.323-6.047-3.323-3.877,0-6.786,2.539-6.786,9.786,0,6.093,2.632,9.416,6.786,9.416,2.123,0,3.693-.922,6.047-3.231Z" transform="translate(14.293 -0.898)" fill="#ad1aac"/><path d="M120.7,93.189V89.956h-.093A9.852,9.852,0,0,1,113.5,93.65c-3.554,0-6.924-1.846-6.924-7.016V69.185H109.9V86.541c0,3.187,1.523,4.247,3.924,4.247,2.494,0,5.356-2.029,6.878-3.646V69.185h3.323v24Z" transform="translate(23.727 2.481)" fill="#ad1aac"/><path d="M122.626,87.264a8.107,8.107,0,0,0,6.878,3.692c3.6,0,5.169-1.938,5.169-3.969,0-6.094-14.216-2.862-13.94-11.633.14-4.153,3.323-6.508,7.94-6.463a10.561,10.561,0,0,1,8.218,4.2l-2.308,2.031c-1.847-2.261-3.6-3.369-6.185-3.369-2.817,0-4.341,1.43-4.341,3.554C124.057,80.523,138,77.846,138,86.8c0,4.662-4.062,7.016-8.4,7.016a11.969,11.969,0,0,1-9.6-4.57Z" transform="translate(31.352 2.313)" fill="#ad1aac"/><path d="M135.78,72.046V64.151H139.1v7.895h5.541v2.862H139.1v17.08c0,1.109.786,1.662,2.726,1.662a18.775,18.775,0,0,0,2.953-.231v2.722a15.27,15.27,0,0,1-3.878.37c-3.6,0-5.123-.924-5.123-3.969V74.908h-3.924V72.046Z" transform="translate(38.092 -0.38)" fill="#ad1aac"/><path d="M142.025,73.967a9.829,9.829,0,0,1,9-5.076c4.06,0,8.307,1.938,8.307,7.2V88.187a18.572,18.572,0,0,0,.555,5.169h-3.417l-.369-3.323a10.719,10.719,0,0,1-7.94,3.786c-3.693,0-6.831-2.216-6.831-6.6,0-5.263,4.016-7.895,14.679-9.787V76.138c0-3.185-2.078-4.385-4.938-4.385a6.2,6.2,0,0,0-6.14,3.739Zm13.987,6.417c-7.617,1.338-11.356,3.555-11.356,6.878a3.941,3.941,0,0,0,3.969,3.693c2.4,0,5.448-1.755,7.386-3.969Z" transform="translate(43.478 2.314)" fill="#ad1aac"/><path d="M158.236,72.046V64.151h3.323v7.895H167.1v2.862h-5.541v17.08c0,1.109.786,1.662,2.726,1.662a18.775,18.775,0,0,0,2.953-.231v2.722a15.269,15.269,0,0,1-3.878.37c-3.6,0-5.123-.924-5.123-3.969V74.908h-3.924V72.046Z" transform="translate(50.853 -0.38)" fill="#ad1aac"/><path d="M185.775,44.106l30.493-12.877c6.02,3.974,10.225,8.988,11.066,14.075Z" transform="translate(68.731 -19.088)" fill="#43b02a"/><path d="M182.541,23.493c-.108,0-.221-.006-.329-.006-14.241,0-10.435,7.678-6.165,15.791Z" transform="translate(60.994 -23.487)" fill="#ad1aac"/><path d="M215.014,32.356a80.331,80.331,0,0,0-17.127-6.863L181.775,42.957Z" transform="translate(66.458 -22.347)" fill="#4ec3e0"/><path d="M177.637,44.7l19.018-19.018a80.773,80.773,0,0,0-15.279-2.169Z" transform="translate(64.107 -23.469)" fill="#ad1aac"/><path d="M198.577,63.4a78.344,78.344,0,0,0,17.381-7.215L181.775,45.169Z" transform="translate(66.458 -11.166)" fill="#4ec3e0"/><path d="M185.774,43.055l31.338,13.437c5.77-4.592,9.717-9.585,10.313-14.635Z" transform="translate(68.731 -13.048)" fill="#43b02a"/><path d="M176.407,48.345c-4.4,8.36-8.84,16.581,5.807,16.581.331,0,.67-.013,1.005-.019Z" transform="translate(60.993 -9.362)" fill="#ad1aac"/><path d="M181.6,66.808a81.655,81.655,0,0,0,15.693-2.33L177.743,44.923Z" transform="translate(64.167 -11.306)" fill="#ad1aac"/><path d="M23.487,76.394V26.961H51.97v7.258H31.978V47.091H49.367v7.258H31.978V69.136h20.95v7.258Z" transform="translate(-23.487 -21.513)" fill="#007a33"/><path d="M66.678,35h7.805L62.844,71.83H55.382L43.741,35h7.807L58.94,61.012h.274Z" transform="translate(-11.978 -16.948)" fill="#007a33"/><path d="M67.052,72.076V35.241h7.189v3.7h.274c3.149-2.465,5.476-4.38,9.722-4.38l.685,7.735a13.889,13.889,0,0,0-2.465-.205,15.319,15.319,0,0,0-7.805,2.6V72.076Z" transform="translate(1.268 -17.195)" fill="#007a33"/><path d="M108.8,55.782H88.534v5.34c0,4.04,2.26,5.409,6.3,5.409,3.767,0,6.369-.822,6.369-5.272l7.6.685c-.205,8.216-6.231,10.818-13.968,10.818-8.694,0-13.9-3.082-13.9-11.776V46.539c0-8.7,5.2-11.98,13.9-11.98S108.8,37.843,108.8,46.539Zm-7.669-6.3V46.4c0-4.107-2.258-5.614-6.3-5.614s-6.3,1.576-6.3,5.614v3.082Z" transform="translate(9.156 -17.195)" fill="#007a33"/><path d="M103.721,72.076V35.241h7.189V38.87h.274c3.013-2.4,6.162-4.311,10.065-4.311,6.367,0,9.105,4.106,9.105,10.609V72.076h-7.669V46.95c0-3.56-.889-5.683-4.449-5.683-2.4,0-4.794,1.575-6.916,3.423V72.076Z" transform="translate(22.105 -17.195)" fill="#007a33"/><path d="M124.679,41.293V35h26.5v6.3l-18.005,23.9v.342h18.348v6.3H124.063v-6.3L142,41.637v-.343Z" transform="translate(33.664 -16.948)" fill="#007a33"/><path d="M144.449,46.128c0-8.694,5.341-11.569,14.036-11.569s14.1,2.875,14.1,11.569V61.054c0,8.42-5.134,11.707-14.1,11.707s-14.036-3.287-14.036-11.707Zm7.6,15.063c0,4.04,2.4,5.34,6.436,5.34s6.434-1.368,6.434-5.34V46.2c0-4.04-2.395-5.409-6.434-5.409s-6.436,1.369-6.436,5.409Z" transform="translate(45.248 -17.195)" fill="#007a33"/><path d="M164.723,35.572H163.1v-1h4.437v1h-1.623v4.413h-1.192Z" transform="translate(55.847 -17.188)" fill="#007a33"/><path d="M166.326,34.571H168l1.266,3.723h.016l1.2-3.723h1.675v5.415h-1.115V36.148h-.016L169.7,39.986h-.917l-1.327-3.8h-.016v3.8h-1.115Z" transform="translate(57.68 -17.189)" fill="#007a33"/></g><path d="M219.25,39.748l-12.3-21.858h24.59Z" transform="translate(104.254)"/></g></svg>