<svg xmlns="http://www.w3.org/2000/svg" width="210.568" height="57.817" viewBox="0 0 210.568 57.817"><g transform="translate(-5.11 -16.87)"><path d="M68.749,43.524a3.581,3.581,0,0,1,3.82-3.538c2.932,0,3.583,1.211,4.142,2.514l.7,1.677h.511l.281-4.889a31.674,31.674,0,0,0-4.842-.557c-5.771,0-8.148,3.585-8.148,6.145,0,6.611,10.381,5.63,10.381,11.452,0,2.7-2.233,3.866-4.561,3.866a4.685,4.685,0,0,1-2.978-.934,9.062,9.062,0,0,1-1.631-3.676h-.511l-.281,5.446a31.47,31.47,0,0,0,4.235.423c7.406,0,9.266-3.634,9.266-6.428,0-7.447-10.382-5.959-10.382-11.5" transform="translate(34.688 12.617)" fill="#fff"/><path d="M88.724,59.334a5.442,5.442,0,0,1-3.445,1.817c-.885,0-2.326-.795-2.326-2.932V42.482h5.353V41.226H82.953V35.778H82.3a9.974,9.974,0,0,1-6.61,5.867v.837h3.722V50.3c0,2.607-.139,6.518-.139,8.614,0,3.768,2.423,4.329,3.631,4.329,2.1,0,3.585-.7,6.52-3.028l-.7-.883" transform="translate(40.736 10.913)" fill="#fff"/><path d="M103.27,47.344c1.027-.047,1.353-.326,1.353-1.443,0-4.052-2.609-7.17-8.1-7.17-7.17,0-10.707,5.957-10.707,11.589,0,6.564,3.959,11.132,9.87,11.132a10.455,10.455,0,0,0,8.241-3.356l-.655-.837a7.156,7.156,0,0,1-5.258,2.094c-5.495,0-8.009-5.26-8.009-10.428,0-.511.049-1.072.091-1.58Zm-7.537-7.638c3.3,0,4.7,2.236,4.7,5.354V45.9c-.7.044-1.348.044-2.84.091l-7.4.185c.653-3.861,2.7-6.471,5.542-6.471" transform="translate(46.579 12.617)" fill="#fff"/><path d="M105.949,59.935V41.5c0-3.165.186-6.332.282-9.5a69.831,69.831,0,0,1-7.637.374v.65l2.746.883a1.146,1.146,0,0,1,.746.516,17.541,17.541,0,0,1,.326,3.956V59.935c0,2.279-.188,3.069-1.629,3.536l-2.189.744v.651a51.334,51.334,0,0,1,5.448-.372c1.907,0,3.861.188,5.728.372v-.651l-2.284-.744c-1.442-.467-1.538-1.257-1.538-3.536" transform="translate(53.956 8.732)" fill="#fff"/><path d="M115.692,63.471c-1.44-.467-1.535-1.259-1.535-3.536V41.5c0-3.165.185-6.332.281-9.5a69.364,69.364,0,0,1-7.637.374v.651l2.746.883a1.15,1.15,0,0,1,.746.514,17.542,17.542,0,0,1,.323,3.956V59.935c0,2.277-.183,3.069-1.628,3.536l-2.188.743v.651a51.285,51.285,0,0,1,5.446-.371c1.91,0,3.862.186,5.727.371v-.651l-2.282-.743" transform="translate(58.692 8.732)" fill="#fff"/><path d="M132.066,57.305V44.317c0-4.332-3.258-5.586-6.981-5.586-3.635,0-6.332,1.864-8.521,5.351l1.164.653a7.564,7.564,0,0,1,6.192-3.583c2.653,0,4.7.976,4.7,4.422v2.465h-.326c-7.681,0-13.081,2.375-13.081,7.682,0,4,2.746,5.73,6.143,5.73s5.4-2,7.215-4.426h.095l-.137,3.956a21.04,21.04,0,0,1,3.4-.372,24.033,24.033,0,0,1,3.586.372V60.33c-2.932-.557-3.446-.79-3.446-3.025m-3.536-4.143c0,3.722-2.47,5.864-5.449,5.864-2.654,0-3.956-1.58-3.956-4.049,0-5.028,5.634-5.679,9.4-5.679v3.864" transform="translate(63.547 12.617)" fill="#fff"/><path d="M67.523,57.305V44.317c0-4.332-3.262-5.586-6.985-5.586-3.632,0-6.331,1.864-8.521,5.351l1.167.653a7.563,7.563,0,0,1,6.189-3.583c2.658,0,4.7.976,4.7,4.422v2.465H63.75c-7.682,0-13.081,2.375-13.081,7.682,0,4,2.747,5.73,6.148,5.73s5.4-2,7.209-4.426h.1l-.142,3.956a21.117,21.117,0,0,1,3.4-.372,24.033,24.033,0,0,1,3.585.372V60.33c-2.934-.557-3.443-.79-3.443-3.025m-3.541-4.143c0,3.722-2.465,5.864-5.444,5.864-2.654,0-3.962-1.58-3.962-4.049,0-5.028,5.635-5.679,9.406-5.679v3.864" transform="translate(26.295 12.617)" fill="#fff"/><path d="M133.331,43.524a3.582,3.582,0,0,1,3.82-3.538c2.934,0,3.585,1.211,4.143,2.514l.7,1.677h.514l.281-4.889a31.767,31.767,0,0,0-4.842-.557c-5.774,0-8.148,3.585-8.148,6.145,0,6.611,10.382,5.63,10.382,11.452,0,2.7-2.235,3.866-4.561,3.866a4.706,4.706,0,0,1-2.982-.934,9.092,9.092,0,0,1-1.628-3.676h-.513l-.279,5.446a31.468,31.468,0,0,0,4.236.423c7.4,0,9.264-3.634,9.264-6.428,0-7.447-10.384-5.959-10.384-11.5" transform="translate(71.963 12.617)" fill="#fff"/><path d="M54.628,31.566c-4.979,4.355-12.07,8.39-19.093,12.508-1.773,8.466-3.855,16.562-7.425,22.131C35.936,62.377,43.6,52.187,47.6,43.448a24.047,24.047,0,0,1,10.144,5.421,34.76,34.76,0,0,0-3.115-17.3" transform="translate(13.275 8.482)" fill="#fff"/><path d="M42.936,16.87c-3.129,2.8-5.269,7.518-6.957,13.174,3.823,1.014,7.381,1.874,10.545,2.4-2.454-5.14-4.433-10.032-3.588-15.578" transform="translate(17.816)" fill="#fff"/><path d="M5.11,20.866A57.628,57.628,0,0,1,41.582,41.473C36.01,47.5,28.493,57.764,26.744,67.8c4.143-6.4,13.043-11.818,22.066-17.1,1.618-7.738,2.984-15.787,4.987-22.509-15.093-4-34.232-10.3-48.687-7.321" transform="translate(0 1.86)" fill="#fff"/><path d="M42.665,26.747c1.166,2.446,2.438,4.946,3.561,7.6a21.369,21.369,0,0,0,5.91-7.482c-2.4.678-5.645.522-9.471-.12" transform="translate(21.675 5.701)" fill="#fff"/><path d="M48.348,27.627c-3.164-.53-6.722-1.389-10.545-2.4-2,6.725-3.367,14.773-4.985,22.512C39.84,43.617,46.932,39.58,51.91,35.228c-1.123-2.656-2.4-5.156-3.561-7.6" transform="translate(15.992 4.821)" fill="#fff"/></g></svg>