<svg xmlns="http://www.w3.org/2000/svg" width="977.479" height="315.707" viewBox="0 0 977.479 315.707"><g transform="translate(2.479 2.479)"><g transform="translate(232.348)"><circle cx="58.606" cy="58.606" r="58.606" fill="none" stroke="#004c2f" stroke-miterlimit="10" stroke-width="4.958"/></g><circle cx="58.606" cy="58.606" r="58.606" fill="none" stroke="#004c2f" stroke-miterlimit="10" stroke-width="4.958"/><g transform="translate(-136 -311.132)"><line y2="48.752" transform="translate(1043.846 344.843)" fill="none" stroke="#004c2f" stroke-miterlimit="10" stroke-width="4.958"/><line y2="48.752" transform="translate(1028.287 345.362)" fill="none" stroke="#004c2f" stroke-miterlimit="10" stroke-width="4.958"/><path d="M687.659,534.665H652.767a24.891,24.891,0,0,0,0,49.783h34.893" transform="translate(375.377 -190.341)" fill="none" stroke="#40146e" stroke-miterlimit="10" stroke-width="4.958"/><line y1="48.752" transform="translate(962.282 344.843)" fill="none" stroke="#004c2f" stroke-miterlimit="10" stroke-width="4.958"/><line y1="48.752" transform="translate(977.841 344.324)" fill="none" stroke="#004c2f" stroke-miterlimit="10" stroke-width="4.958"/><path d="M591.935,584.451h34.891a24.891,24.891,0,0,0,0-49.781H591.935" transform="translate(351.158 -190.338)" fill="none" stroke="#40146e" stroke-miterlimit="10" stroke-width="4.958"/></g><g transform="translate(-121.588 -311.132)"><line x2="116.174" transform="translate(492.088 369.132)" fill="none" stroke="#376348" stroke-linejoin="round" stroke-width="3.718"/><path d="M347.87,538.054l18.7,18.7-18.7,18.7" transform="translate(245.376 -188.057)" fill="none" stroke="#376348" stroke-miterlimit="10" stroke-width="3.098"/></g><line x2="47.691" transform="translate(146.657 58.575)" fill="none" stroke="#376348" stroke-linejoin="round" stroke-width="3.718"/><path d="M159.482,538.416l18.7,18.7-18.7,18.7" transform="translate(18.434 -498.945)" fill="none" stroke="#376348" stroke-miterlimit="10" stroke-width="3.098"/><line x2="47.691" transform="translate(747.685 58.575)" fill="none" stroke="#376348" stroke-linejoin="round" stroke-width="3.098"/><path d="M553.611,538.416l18.7,18.7-18.7,18.7" transform="translate(225.334 -498.945)" fill="none" stroke="#376348" stroke-miterlimit="10" stroke-width="3.098"/><text transform="translate(251.355 68.154)" fill="#4d4d4f" font-size="30" font-family="Helvetica"><tspan x="0" y="0">HIF-</tspan></text><text transform="translate(311.849 66.154)" fill="#4d4d4f" font-size="27" font-family="MyriadPro-Regular, Myriad Pro"><tspan x="0" y="0">α</tspan></text><text transform="translate(18.996 68.145)" fill="#4d4d4f" font-size="30" font-family="Helvetica"><tspan x="0" y="0">HIF-</tspan></text><text transform="translate(79.49 66.145)" fill="#4d4d4f" font-size="27" font-family="MyriadPro-Regular, Myriad Pro"><tspan x="0" y="0">α</tspan></text><g transform="translate(-146 -311.132)"><g transform="translate(655.717 311.132)"><circle cx="58.606" cy="58.606" r="58.606" fill="none" stroke="#004c2f" stroke-miterlimit="10" stroke-width="4.958"/></g><g transform="translate(757.117 311.132)"><circle cx="58.606" cy="58.606" r="58.606" fill="none" stroke="#40146e" stroke-miterlimit="10" stroke-width="4.958"/></g><text transform="translate(667.609 379.271)" fill="#4d4d4f" font-size="30" font-family="Helvetica"><tspan x="0" y="0">HIF-</tspan></text><text transform="translate(728.102 377.271)" fill="#4d4d4f" font-size="27" font-family="MyriadPro-Regular, Myriad Pro"><tspan x="0" y="0">α</tspan></text><text transform="translate(783.76 379.276)" fill="#4d4d4f" font-size="30" font-family="Helvetica"><tspan x="0" y="0">HIF-</tspan></text><text transform="translate(844.253 379.276)" fill="#4d4d4f" font-size="29" font-family="MyriadPro-Regular, Myriad Pro"><tspan x="0" y="0">β</tspan></text></g><text transform="translate(860 132.53)" fill="#303644" font-size="28" font-family="Helvetica"><tspan x="-114.393" y="0">Gene transcription</tspan></text><g transform="translate(0.799 130.151)"><g transform="translate(0 0)"><path d="M260.645,634.266a36.958,36.958,0,1,1-37.937-.386l18.642,34.43Z" transform="translate(41.97 -567.397)" fill="none" stroke="#40146e" stroke-linejoin="round" stroke-width="3.718"/><line y1="47.22" transform="translate(282.806 2.735)" fill="none" stroke="#40146e" stroke-linejoin="round" stroke-width="3.718"/><path d="M215.239,612.254l18.509-18.509,18.51,18.509" transform="translate(49.088 -593.745)" fill="none" stroke="#40146e" stroke-miterlimit="10" stroke-width="3.098"/><path d="M267.545,691.534H55.668V638.155H267.545l20.117,26.69Z" transform="translate(-55.668 -564.59)" fill="#40146e"/><line x2="37.981" y2="37.981" transform="translate(263.815 6.603)" fill="none" stroke="#d1524a" stroke-miterlimit="10" stroke-width="3.718"/><line y1="37.981" x2="37.981" transform="translate(263.815 6.604)" fill="none" stroke="#d1524a" stroke-miterlimit="10" stroke-width="3.718"/></g><text transform="translate(236.422 176.078)" fill="#4d4d4f" font-size="30" font-family="Helvetica"><tspan x="0" y="0">HIF-PH</tspan></text><text transform="translate(39.33 108.391)" fill="#fff" font-size="28" font-family="Helvetica"><tspan x="0" y="0">EVRENZO</tspan></text></g></g></svg>