<svg xmlns="http://www.w3.org/2000/svg" width="375.456" height="121.872" viewBox="23.487 29.018 375.456 121.872"><g data-name="Group 13710"><path d="M61.292 119.873h4.212v6.026h.118c2.34-4.153 4.857-6.495 9.89-6.495v4.215c-5.268.115-8.017 3.57-10.008 9.831v16.854h-4.212v-30.431Z" fill="#ad1aac" fill-rule="evenodd" data-name="Path 74634"/><path d="M89.261 150.888c-8.309 0-12.466-7.022-12.466-15.8 0-8.78 4.157-15.802 12.466-15.802 8.31 0 12.466 7.023 12.466 15.802 0 8.778-4.155 15.8-12.466 15.8m0-27.973c-5.032 0-8.25 4.33-8.25 12.173 0 7.84 3.218 12.172 8.25 12.172 5.034 0 8.253-4.332 8.253-12.172 0-7.843-3.219-12.173-8.253-12.173" fill="#ad1aac" fill-rule="evenodd" data-name="Path 74635"/><path d="m114.658 130.699 6.378-10.828h4.742l-8.546 14.456 9.892 15.977h-4.86l-7.606-12.464-7.374 12.464h-4.74l9.597-15.977-8.895-14.456h4.74l6.672 10.828Z" fill="#ad1aac" fill-rule="evenodd" data-name="Path 74636"/><path d="M129.108 125.724c1.932-3.51 5.676-6.436 11.414-6.436 5.147 0 10.531 2.458 10.531 9.13v15.333c0 3.336.294 4.974.704 6.553h-4.332l-.467-4.213c-2.106 2.34-5.502 4.8-10.067 4.8-4.682 0-8.66-2.81-8.66-8.369 0-6.672 5.092-10.008 18.61-12.408v-1.638c0-4.038-2.635-5.56-6.261-5.56-4.683 0-6.965 2.693-7.784 4.74l-3.688-1.932Zm17.732 8.136c-9.656 1.695-14.396 4.507-14.396 8.72 0 2.809 2.692 4.682 5.032 4.682 3.046 0 6.907-2.225 9.364-5.032v-8.37Z" fill="#ad1aac" fill-rule="evenodd" data-name="Path 74637"/><path d="M180.369 108.051v35.582c0 2.223-.116 4.448.234 6.67h-3.863l-.584-2.984c-1.404 1.933-4.388 3.571-8.019 3.571-5.384 0-12.463-3.63-12.463-15.8 0-11.823 7.08-15.804 12.23-15.804 2.868 0 5.677 1.466 8.017 3.396l.235.117v-14.748h4.213Zm-4.213 19.079c-2.283-2.517-5.15-4.213-7.667-4.213-4.914 0-8.602 3.219-8.602 12.406 0 7.724 3.336 11.937 8.602 11.937 2.692 0 4.682-1.17 7.667-4.096V127.13Z" fill="#ad1aac" fill-rule="evenodd" data-name="Path 74638"/><path d="M206.587 150.304v-4.098h-.118c-2.398 2.692-5.559 4.682-9.012 4.682-4.505 0-8.778-2.34-8.778-8.895v-22.12h4.213v22.003c0 4.04 1.93 5.384 4.974 5.384 3.162 0 6.79-2.573 8.72-4.623v-22.764h4.213v30.43h-4.212Z" fill="#ad1aac" fill-rule="evenodd" data-name="Path 74639"/><path d="M218.696 142.58c1.99 2.867 4.915 4.68 8.72 4.68 4.565 0 6.553-2.458 6.553-5.032 0-7.726-18.022-3.629-17.672-14.748.177-5.265 4.213-8.251 10.066-8.194 3.98.06 8.368 2.225 10.418 5.327l-2.927 2.574c-2.342-2.867-4.565-4.27-7.841-4.27-3.57 0-5.503 1.813-5.503 4.505 0 6.613 17.674 3.219 17.674 14.571 0 5.911-5.149 8.895-10.65 8.895-4.74 0-9.364-2.048-12.174-5.793l3.336-2.515Z" fill="#ad1aac" fill-rule="evenodd" data-name="Path 74640"/><path d="M243.916 119.873v-10.009h4.213v10.009h7.024v3.628h-7.024v21.653c0 1.406.996 2.108 3.456 2.108 1.403 0 2.632-.118 3.743-.292v3.451c-.761.235-2.457.47-4.916.47-4.565 0-6.496-1.172-6.496-5.033v-22.357h-4.974v-3.628h4.974Z" fill="#ad1aac" fill-rule="evenodd" data-name="Path 74641"/><path d="M258.66 125.724c1.933-3.51 5.677-6.436 11.415-6.436 5.147 0 10.53 2.458 10.53 9.13v15.333c0 3.336.295 4.974.705 6.553h-4.333l-.467-4.213c-2.105 2.34-5.501 4.8-10.066 4.8-4.682 0-8.66-2.81-8.66-8.369 0-6.672 5.091-10.008 18.609-12.408v-1.638c0-4.038-2.634-5.56-6.26-5.56-4.683 0-6.965 2.693-7.784 4.74l-3.688-1.932Zm17.733 8.136c-9.657 1.695-14.396 4.507-14.396 8.72 0 2.809 2.692 4.682 5.032 4.682 3.046 0 6.907-2.225 9.364-5.032v-8.37Z" fill="#ad1aac" fill-rule="evenodd" data-name="Path 74642"/><path d="M288.562 119.873v-10.009h4.213v10.009h7.025v3.628h-7.025v21.653c0 1.406.996 2.108 3.456 2.108 1.403 0 2.632-.118 3.744-.292v3.451c-.762.235-2.458.47-4.917.47-4.565 0-6.496-1.172-6.496-5.033v-22.357h-4.974v-3.628h4.974Z" fill="#ad1aac" fill-rule="evenodd" data-name="Path 74643"/><path d="M346.142 60.735 384.8 44.41c7.632 5.038 12.962 11.394 14.028 17.844l-52.686-1.52Z" fill="#43b02a" fill-rule="evenodd" data-name="Path 74644"/><path d="M332.233 29.026c-.138 0-.28-.008-.418-.008-18.054 0-13.23 9.734-7.815 20.019l8.233-20.011Z" fill="#ad1aac" fill-rule="evenodd" data-name="Path 74645"/><path d="M380.328 41.706c-6.42-3.567-13.953-6.53-21.713-8.7l-20.426 22.14 42.14-13.44Z" fill="#4ec3e0" fill-rule="evenodd" data-name="Path 74646"/><path d="m329.962 55.94 24.11-24.111c-6.598-1.559-13.233-2.517-19.37-2.75l-4.74 26.86Z" fill="#ad1aac" fill-rule="evenodd" data-name="Path 74647"/><path d="M359.49 95.232c7.941-2.285 15.595-5.412 22.035-9.148L338.19 72.125l21.301 23.107Z" fill="#4ec3e0" fill-rule="evenodd" data-name="Path 74648"/><path d="m346.14 67.06 39.73 17.034c7.314-5.821 12.318-12.152 13.073-18.554l-52.803 1.52Z" fill="#43b02a" fill-rule="evenodd" data-name="Path 74649"/><path d="M324.455 78.44c-5.581 10.598-11.207 21.02 7.362 21.02.42 0 .849-.016 1.274-.023l-8.636-20.997Z" fill="#ad1aac" fill-rule="evenodd" data-name="Path 74650"/><path d="M335.068 99.38c6.314-.27 13.133-1.297 19.895-2.954l-24.79-24.79 4.895 27.745Z" fill="#ad1aac" fill-rule="evenodd" data-name="Path 74651"/><path d="M23.487 98.594V35.926h36.11v9.2H34.25v16.32h22.045v9.2H34.251v18.747h26.56v9.201H23.487Z" fill="#007a33" fill-rule="evenodd" data-name="Path 74652"/><path d="M92.834 51.898h9.895L87.973 98.596h-9.46L63.755 51.898h9.897l9.372 32.983h.348l9.462-32.983Z" fill="#007a33" fill-rule="evenodd" data-name="Path 74653"/><path d="M110.101 98.594V51.896h9.114v4.688h.348c3.992-3.126 6.942-5.553 12.324-5.553l.87 9.805s-1.303-.26-3.126-.26c-2.865 0-6.77 1.215-9.895 3.298v34.72H110.1Z" fill="#007a33" fill-rule="evenodd" data-name="Path 74654"/><path d="M173.028 77.937h-25.693v6.77c0 5.12 2.865 6.856 7.985 6.856 4.775 0 8.074-1.041 8.074-6.684l9.634.869c-.26 10.416-7.899 13.714-17.708 13.714-11.023 0-17.62-3.906-17.62-14.929V66.218c0-11.024 6.597-15.187 17.62-15.187 11.024 0 17.708 4.163 17.708 15.187v11.719Zm-9.722-7.987v-3.907c0-5.207-2.863-7.117-7.986-7.117-5.12 0-7.985 1.998-7.985 7.117v3.907h15.971Z" fill="#007a33" fill-rule="evenodd" data-name="Path 74655"/><path d="M183.005 98.594V51.896h9.114v4.6h.348c3.819-3.038 7.811-5.465 12.76-5.465 8.072 0 11.543 5.205 11.543 13.45v34.113h-9.722V66.739c0-4.513-1.127-7.205-5.64-7.205-3.04 0-6.078 1.996-8.768 4.34v34.72h-9.635Z" fill="#007a33" fill-rule="evenodd" data-name="Path 74656"/><path d="M224.229 59.882v-7.984h33.59v7.984l-22.826 30.294v.433h23.261v7.987h-34.806v-7.987l22.74-30.291v-.436h-21.96Z" fill="#007a33" fill-rule="evenodd" data-name="Path 74657"/><path d="M263.979 65.697c0-11.022 6.772-14.666 17.794-14.666s17.88 3.644 17.88 14.666v18.924c0 10.674-6.51 14.841-17.88 14.841s-17.794-4.167-17.794-14.841V65.697Zm9.634 19.097c0 5.121 3.038 6.77 8.16 6.77 5.121 0 8.157-1.734 8.157-6.77v-19.01c0-5.12-3.036-6.856-8.157-6.856-5.122 0-8.16 1.735-8.16 6.857v19.009Z" fill="#007a33" fill-rule="evenodd" data-name="Path 74658"/><path d="M303.118 52.324h-2.056v-1.269h5.625v1.269h-2.058v5.594h-1.511v-5.594Z" fill="#007a33" fill-rule="evenodd" data-name="Path 74659"/><path d="M307.474 51.054h2.125l1.605 4.72h.02l1.52-4.72h2.124v6.865h-1.414v-4.865h-.02l-1.681 4.865h-1.163l-1.682-4.817h-.02v4.817h-1.414v-6.865Z" fill="#007a33" fill-rule="evenodd" data-name="Path 74660"/></g></svg>