<svg xmlns="http://www.w3.org/2000/svg" width="45.869" height="45.869" viewBox="1569.449 1020.773 45.869 45.869"><g data-name="arrow-down-circle-fill"><path d="M1592.384 1066.642c-12.667 0-22.935-10.268-22.935-22.935 0-12.666 10.268-22.934 22.935-22.934 12.666 0 22.934 10.268 22.934 22.934 0 12.667-10.268 22.935-22.934 22.935Zm8.6-21.501a1.433 1.433 0 0 0 0-2.867h-13.74l6.155-6.153a1.435 1.435 0 0 0-2.03-2.03l-8.6 8.6a1.433 1.433 0 0 0 0 2.03l8.6 8.601a1.435 1.435 0 1 0 2.03-2.03l-6.155-6.151h13.74Z" fill="#fff" fill-rule="evenodd" data-name="Path 74614"/></g></svg>