<svg xmlns="http://www.w3.org/2000/svg" width="45.869" height="45.869" viewBox="1726.169 1020.773 45.869 45.869"><g data-name="arrow-down-circle-fill"><path d="M1749.104 1020.773c12.666 0 22.935 10.268 22.935 22.934 0 12.667-10.269 22.935-22.935 22.935-12.666 0-22.935-10.268-22.935-22.935 0-12.666 10.269-22.934 22.935-22.934Zm-8.6 21.501a1.433 1.433 0 0 0 0 2.867h13.74l-6.156 6.153a1.435 1.435 0 0 0 2.03 2.03l8.6-8.601a1.433 1.433 0 0 0 0-2.03l-8.6-8.6a1.435 1.435 0 1 0-2.03 2.03l6.156 6.151h-13.74Z" fill="#fff" fill-rule="evenodd" data-name="Path 74614"/></g></svg>