<svg xmlns="http://www.w3.org/2000/svg" width="57.688" height="99.152" viewBox="11.499 0 57.688 99.152"><path d="M62.47 37.603c-1.453 0-2.555.681-3.388 1.671-.025-.31-.04-.577-.04-.79 0-4.53-2.502-7.458-6.376-7.458-1.712 0-3.021.478-3.997 1.152a6.433 6.433 0 0 0-1.108-2.167c2.32-3.21 3.6-7.1 3.6-11.082C51.16 8.491 42.67 0 32.23 0 21.793 0 13.302 8.491 13.302 18.93c0 7.903 5 14.999 12.313 17.734l-.249 7.478c-1.494-2.82-3.634-5.52-5.244-6.343-1.868-.955-5.023-.306-6.896 1.408-1.734 1.585-2.188 3.839-1.245 6.182.75 1.862 1.204 4.053 1.73 6.588.673 3.234 1.51 7.26 3.29 12.169 2.858 7.887 11.78 16.216 14.268 18.433v5.93c0 5.87 4.783 10.643 10.662 10.643h11.676c5.88 0 10.664-4.779 10.664-10.654v-7.121c2.998-4.112 4.79-11.515 4.867-11.84.033-.136.05-.277.05-.418V44.488c0-4.12-2.698-6.885-6.718-6.885ZM16.908 18.929c0-8.45 6.874-15.323 15.323-15.323 8.45 0 15.324 6.874 15.324 15.323 0 3.3-1.087 6.521-3.05 9.153a6.233 6.233 0 0 0-1.43-.175c-1.813 0-3.207.543-4.243 1.228-.042-5.284-.083-10.618-.083-11.019 0-1.866-2.24-5.496-6.34-5.496-3.529 0-5.498 3.311-6.105 5.267a1.79 1.79 0 0 0-.08.476l-.479 14.448c-5.298-2.49-8.837-7.9-8.837-13.882Zm48.675 49.974c-.562 2.263-2.316 8.039-4.509 10.721a1.804 1.804 0 0 0-.407 1.142V88.5c0 3.886-3.166 7.049-7.058 7.049H41.932c-3.89 0-7.056-3.157-7.056-7.039v-6.747c0-.529-.23-1.03-.634-1.372-.109-.094-10.915-9.37-13.851-17.471-1.691-4.666-2.467-8.389-3.148-11.675-.563-2.705-1.047-5.04-1.918-7.199-.469-1.166-.108-1.738.26-2.106.713-.714 1.872-.979 2.516-.979.166 0 .3.019.38.051 1.216.622 4.17 4.812 4.935 7.842.312 1.231.468 2.4.605 3.43.265 1.971.475 3.525 1.654 4.465a1.806 1.806 0 0 0 2.924-1.352l1.218-36.63c.246-.62 1.129-2.542 2.591-2.542 2.091 0 2.731 1.945 2.737 1.893 0 .846.17 21.756.17 21.756a1.802 1.802 0 0 0 1.705 1.785c.962.085 1.777-.642 1.887-1.59l.8-6.824c.318-.486 1.331-1.732 3.368-1.732 1.821 0 2.16 1.507 2.236 2.282l1.13 7.316a1.803 1.803 0 0 0 3.584-.317l-.112-4.68c.193-.467.837-1.482 2.751-1.482 2.292 0 2.771 2.095 2.771 3.852 0 2.184 1.046 7.821 1.165 8.456.164.881.96 1.532 1.85 1.469a1.803 1.803 0 0 0 1.716-1.623c.25-2.524 1.334-5.576 2.304-5.576 2.572 0 3.113 1.783 3.113 3.278v24.415Z" fill="#4d4d4f" fill-rule="evenodd" data-name="Path 74620"/></svg>